<?xml version="1.0" standalone="no"?>
<!DOCTYPE svg PUBLIC "-//W3C//DTD SVG 20010904//EN"
 "http://www.w3.org/TR/2001/REC-SVG-20010904/DTD/svg10.dtd">
<svg version="1.0" xmlns="http://www.w3.org/2000/svg"
 width="1077.000000pt" height="1077.000000pt" viewBox="0 0 1077.000000 1077.000000"
 preserveAspectRatio="xMidYMid meet">

<g transform="translate(0.000000,1077.000000) scale(0.100000,-0.100000)"
fill="#503ADC" stroke="none">
<path d="M5050 10759 c-1526 -95 -2941 -836 -3891 -2039 -656 -830 -1047
-1826 -1140 -2905 -15 -180 -15 -680 0 -860 47 -543 171 -1075 366 -1565 74
-186 239 -527 340 -700 363 -626 870 -1194 1450 -1625 1188 -883 2663 -1235
4131 -985 1439 245 2737 1088 3548 2305 153 228 222 346 331 560 669 1317 768
2856 274 4243 -349 977 -959 1817 -1794 2467 -122 95 -394 279 -555 375 -146
88 -437 234 -612 308 -774 329 -1612 472 -2448 421z m-1470 -3134 l0 -185 135
0 135 0 0 -205 0 -205 -135 0 -135 0 0 -349 c0 -320 1 -351 18 -371 22 -27 87
-36 150 -22 32 7 44 7 48 -1 9 -25 74 -353 74 -374 0 -18 -10 -24 -72 -38
-173 -40 -375 -38 -504 5 -121 41 -209 123 -256 240 -22 53 -23 67 -26 483
l-3 427 -100 0 -99 0 0 205 0 205 100 0 100 0 0 185 0 185 285 0 285 0 0 -185z
m4120 0 l0 -185 135 0 135 0 0 -205 0 -205 -135 0 -135 0 0 -346 0 -346 30
-30 c31 -30 31 -30 110 -24 44 4 80 5 80 3 0 -2 18 -89 39 -193 22 -104 37
-192 33 -196 -15 -14 -138 -39 -234 -48 -318 -27 -516 64 -600 279 -21 54 -22
73 -26 479 l-4 422 -99 0 -99 0 0 205 0 205 100 0 100 0 0 185 0 185 285 0
285 0 0 -185z m-2873 -135 c179 -43 359 -157 451 -287 l20 -28 -363 -435
c-204 -244 -360 -439 -355 -444 5 -5 46 -6 92 -4 132 8 244 72 304 174 14 24
29 44 33 44 13 0 281 -277 281 -290 0 -24 -165 -177 -235 -218 -396 -232 -906
-83 -1105 323 -94 193 -110 457 -40 659 81 236 260 413 496 490 126 41 290 47
421 16z m1030 -62 c5 -7 56 -113 114 -235 57 -123 106 -223 109 -223 3 0 58
106 123 235 l117 235 280 0 c154 0 280 -3 280 -6 0 -3 -91 -175 -202 -382
-112 -208 -203 -386 -203 -397 0 -11 94 -185 208 -387 114 -202 210 -374 213
-383 5 -13 -26 -15 -272 -15 l-279 0 -131 246 -132 245 -40 -73 c-22 -40 -79
-151 -128 -245 l-89 -173 -282 0 c-156 0 -283 3 -283 8 0 4 99 180 219 391
l220 384 -26 51 c-14 28 -106 201 -204 384 -99 182 -179 337 -179 342 0 16
555 13 567 -2z m-1001 -2253 c101 -18 211 -62 299 -120 71 -47 207 -182 203
-202 -2 -7 -164 -207 -360 -442 -197 -236 -358 -431 -358 -434 0 -13 84 -17
141 -7 110 20 220 93 265 175 10 19 23 35 29 35 6 0 73 -63 149 -139 l139
-139 -21 -29 c-11 -15 -47 -54 -79 -85 -164 -156 -363 -228 -596 -215 -212 11
-408 108 -545 269 -67 79 -145 237 -168 343 -26 114 -23 303 5 410 109 411
482 652 897 580z m1540 -39 c261 -57 425 -193 479 -397 8 -30 15 -69 15 -86
l0 -33 -259 0 -259 0 -6 24 c-9 36 -53 84 -100 108 -56 29 -164 30 -221 3 -53
-27 -71 -62 -51 -108 19 -47 58 -60 298 -103 323 -57 420 -91 521 -184 79 -72
110 -139 115 -250 7 -144 -30 -243 -132 -348 -69 -72 -143 -121 -241 -157
-131 -50 -196 -59 -400 -59 -173 1 -199 3 -289 27 -195 52 -312 133 -375 258
-17 34 -30 64 -28 65 2 2 110 44 240 93 l237 89 19 -43 c12 -27 34 -53 58 -69
74 -49 204 -56 284 -15 39 20 49 35 49 78 0 56 -57 83 -242 116 -236 42 -340
66 -400 90 -135 55 -229 146 -268 260 -25 73 -27 217 -4 296 54 185 233 310
509 355 103 17 355 12 451 -10z m1616 -10 c54 -14 130 -42 170 -63 91 -46 194
-147 231 -223 31 -63 62 -199 49 -212 -4 -4 -122 -7 -262 -6 l-253 3 -10 30
c-19 60 -69 97 -156 116 -99 21 -221 -28 -221 -88 0 -71 45 -91 305 -138 110
-20 234 -45 275 -56 80 -21 200 -76 200 -90 0 -5 6 -9 14 -9 19 0 90 -80 115
-128 33 -64 47 -166 33 -246 -35 -211 -206 -373 -470 -443 -87 -24 -116 -26
-282 -27 -195 -1 -246 6 -381 50 -149 48 -243 122 -301 238 -16 32 -28 60 -26
61 5 6 451 175 467 178 8 1 18 -10 22 -27 4 -16 20 -42 35 -57 96 -100 364
-76 364 32 0 68 -57 93 -320 139 -225 40 -279 54 -367 96 -182 87 -269 253
-243 462 25 196 167 337 403 402 117 32 188 39 357 35 124 -3 174 -9 252 -29z
m-4962 -548 c69 -295 128 -539 132 -543 8 -9 1 -37 133 520 64 270 120 507
126 528 l10 37 294 0 c231 0 295 -3 295 -13 0 -16 -572 -1708 -599 -1770 -53
-122 -169 -248 -281 -304 -96 -48 -170 -64 -315 -70 -135 -5 -279 12 -350 41
l-33 14 57 184 c31 101 60 191 64 201 6 15 9 15 49 1 24 -9 72 -16 108 -17 75
-1 111 16 130 64 12 28 -6 86 -262 842 -152 447 -273 815 -271 820 2 4 135 6
296 5 l291 -3 126 -537z"/>
<path d="M4557 7109 c-221 -52 -340 -288 -276 -546 6 -24 15 -43 19 -43 4 0
108 132 230 292 206 273 220 293 198 299 -33 10 -126 9 -171 -2z"/>
<path d="M4605 4776 c-184 -58 -290 -229 -272 -439 7 -78 24 -147 35 -146 4 0
105 131 226 291 167 222 215 292 205 299 -21 13 -148 10 -194 -5z"/>
</g>
</svg>
